<svg width="165" height="40" viewBox="0 0 165 40" fill="none" xmlns="http://www.w3.org/2000/svg">
<path d="M34.1422 5.85781C30.3647 2.08031 25.3422 0 20 0C14.6578 0 9.63531 2.08031 5.85781 5.85781C2.08031 9.63531 0 14.6578 0 20C0 25.3422 2.08039 30.3646 5.85781 34.1422C9.63523 37.9198 14.6578 40 20 40C25.3422 40 30.3647 37.9197 34.1422 34.1422C37.9197 30.3647 40 25.3422 40 20C40 14.6578 37.9196 9.63539 34.1422 5.85781Z" fill="#33CC95"/>
<g clip-path="url(#clip0)">
<path d="M20.5714 8V33.1429" stroke="white" stroke-width="2" stroke-linecap="round" stroke-linejoin="round"/>
<path d="M26.2857 12.5714H17.7143C16.6534 12.5714 15.636 12.9929 14.8859 13.743C14.1357 14.4931 13.7143 15.5106 13.7143 16.5714C13.7143 17.6323 14.1357 18.6497 14.8859 19.3999C15.636 20.15 16.6534 20.5714 17.7143 20.5714H23.4286C24.4894 20.5714 25.5069 20.9929 26.257 21.743C27.0072 22.4932 27.4286 23.5106 27.4286 24.5714C27.4286 25.6323 27.0072 26.6497 26.257 27.3999C25.5069 28.15 24.4894 28.5714 23.4286 28.5714H13.7143" stroke="white" stroke-width="2" stroke-linecap="round" stroke-linejoin="round"/>
</g>
<path d="M68.4553 12.644V28H65.3753V18.012L61.2613 28H58.9293L54.7933 18.012V28H51.7133V12.644H55.2113L60.0953 24.062L64.9793 12.644H68.4553ZM83.1604 15.812L75.6144 33.764H72.3364L74.9764 27.692L70.0924 15.812H73.5464L76.6924 24.326L79.8824 15.812H83.1604ZM106.805 12.644V28H103.725V18.012L99.6109 28H97.2789L93.1429 18.012V28H90.0629V12.644H93.5609L98.4449 24.062L103.329 12.644H106.805ZM115.262 28.198C114.089 28.198 113.033 27.9413 112.094 27.428C111.155 26.9 110.415 26.1593 109.872 25.206C109.344 24.2527 109.08 23.1527 109.08 21.906C109.08 20.6593 109.351 19.5593 109.894 18.606C110.451 17.6527 111.207 16.9193 112.16 16.406C113.113 15.878 114.177 15.614 115.35 15.614C116.523 15.614 117.587 15.878 118.54 16.406C119.493 16.9193 120.241 17.6527 120.784 18.606C121.341 19.5593 121.62 20.6593 121.62 21.906C121.62 23.1527 121.334 24.2527 120.762 25.206C120.205 26.1593 119.442 26.9 118.474 27.428C117.521 27.9413 116.45 28.198 115.262 28.198ZM115.262 25.514C115.819 25.514 116.34 25.382 116.824 25.118C117.323 24.8393 117.719 24.4287 118.012 23.886C118.305 23.3433 118.452 22.6833 118.452 21.906C118.452 20.7473 118.144 19.86 117.528 19.244C116.927 18.6133 116.186 18.298 115.306 18.298C114.426 18.298 113.685 18.6133 113.084 19.244C112.497 19.86 112.204 20.7473 112.204 21.906C112.204 23.0647 112.49 23.9593 113.062 24.59C113.649 25.206 114.382 25.514 115.262 25.514ZM130.633 15.636C132.085 15.636 133.259 16.098 134.153 17.022C135.048 17.9313 135.495 19.2073 135.495 20.85V28H132.415V21.268C132.415 20.3 132.173 19.5593 131.689 19.046C131.205 18.518 130.545 18.254 129.709 18.254C128.859 18.254 128.184 18.518 127.685 19.046C127.201 19.5593 126.959 20.3 126.959 21.268V28H123.879V15.812H126.959V17.33C127.37 16.802 127.891 16.3913 128.521 16.098C129.167 15.79 129.871 15.636 130.633 15.636ZM149.754 21.642C149.754 22.082 149.725 22.478 149.666 22.83H140.756C140.83 23.71 141.138 24.3993 141.68 24.898C142.223 25.3967 142.89 25.646 143.682 25.646C144.826 25.646 145.64 25.1547 146.124 24.172H149.446C149.094 25.3453 148.42 26.3133 147.422 27.076C146.425 27.824 145.2 28.198 143.748 28.198C142.575 28.198 141.519 27.9413 140.58 27.428C139.656 26.9 138.93 26.1593 138.402 25.206C137.889 24.2527 137.632 23.1527 137.632 21.906C137.632 20.6447 137.889 19.5373 138.402 18.584C138.916 17.6307 139.634 16.8973 140.558 16.384C141.482 15.8707 142.546 15.614 143.748 15.614C144.907 15.614 145.941 15.8633 146.85 16.362C147.774 16.8607 148.486 17.572 148.984 18.496C149.498 19.4053 149.754 20.454 149.754 21.642ZM146.564 20.762C146.55 19.97 146.264 19.3393 145.706 18.87C145.149 18.386 144.467 18.144 143.66 18.144C142.898 18.144 142.252 18.3787 141.724 18.848C141.211 19.3027 140.896 19.9407 140.778 20.762H146.564ZM163.662 15.812L156.116 33.764H152.838L155.478 27.692L150.594 15.812H154.048L157.194 24.326L160.384 15.812H163.662Z" fill="white"/>
<defs>
<clipPath id="clip0">
<rect width="27.4286" height="27.4286" fill="white" transform="translate(6.85715 6.85714)"/>
</clipPath>
</defs>
</svg>
